name C:\Users\u0101727\Documents\MyRepositories\paper-ad\predictivesimulations_2d/Results/PredSim_2D/IK_c32.mot
datacolumns 11
datarows 25
range 0.00000000 0.23186581
endheader
time	pelvis_tilt	pelvis_tx	pelvis_ty	hip_flexion_l	hip_flexion_r	knee_angle_l	knee_angle_r	ankle_angle_l	ankle_angle_r	lumbar_extension	
          0.00000000	        -16.05925602	          0.00000000	          0.88094360	          1.81338300	         39.15623528	        -15.91700782	         -9.81883764	          6.65079351	         13.35044217	         10.46065197	
          0.00966108	        -16.01536402	          0.01500659	          0.88016744	          1.72108917	         38.62913383	        -17.46788704	         -9.21842078	          5.47622363	         12.87824765	         10.56866826	
          0.01932215	        -15.95955048	          0.03028428	          0.87934230	          1.71214168	         38.01425385	        -19.19902215	         -8.90709838	          4.19825204	         12.34891297	         10.69037813	
          0.02898323	        -15.89458343	          0.04581025	          0.87848308	          1.79462266	         37.24660844	        -21.10167458	         -9.00140784	          2.77448375	         11.75939193	         10.82932211	
          0.03864430	        -15.82919116	          0.06139347	          0.87773518	          1.97532637	         36.36736482	        -23.15860077	         -9.32660923	          1.27764944	         11.14821739	         10.97604066	
          0.04830538	        -15.77475280	          0.07667669	          0.87736100	          2.28933569	         35.49873185	        -25.27753916	         -9.62428398	         -0.03337101	         10.55158635	         11.10610163	
          0.05796645	        -15.74061900	          0.09139543	          0.87763246	          2.76527541	         34.67596487	        -27.30074180	         -9.89894434	         -1.04382987	          9.97224105	         11.20457343	
          0.06762753	        -15.72970085	          0.10548813	          0.87869377	          3.39210629	         33.89810952	        -29.15948406	        -10.13916698	         -1.79456940	          9.42801028	         11.27070583	
          0.07728860	        -15.73694639	          0.11904772	          0.88048025	          4.15036188	         33.14473277	        -30.87818197	        -10.33158685	         -2.29837010	          8.93755068	         11.31089259	
          0.08694968	        -15.75522373	          0.13220906	          0.88275803	          5.01560932	         32.39456325	        -32.48831938	        -10.46932930	         -2.57119300	          8.51280225	         11.33250153	
          0.09661075	        -15.77891334	          0.14508521	          0.88528223	          5.97016604	         31.63095198	        -34.00948100	        -10.54721245	         -2.63249189	          8.16001529	         11.34099819	
          0.10627183	        -15.80449858	          0.15775158	          0.88786803	          7.00176556	         30.84500015	        -35.45037006	        -10.56455972	         -2.50008118	          7.88062693	         11.33949429	
          0.11593290	        -15.83006559	          0.17025504	          0.89039339	          8.10094880	         30.03310454	        -36.81181847	        -10.52335088	         -2.19158039	          7.67330547	         11.32965346	
          0.12559398	        -15.85467746	          0.18262568	          0.89278123	          9.25948687	         29.19429127	        -38.09001467	        -10.42671148	         -1.72436531	          7.53576989	         11.31248826	
          0.13525506	        -15.87786735	          0.19488360	          0.89498322	         10.47079356	         28.32943116	        -39.27941919	        -10.27911465	         -1.11524629	          7.46504458	         11.28859922	
          0.14491613	        -15.89938121	          0.20704376	          0.89696856	         11.72891601	         27.44069877	        -40.37329053	        -10.08638738	         -0.38065631	          7.45735635	         11.25843208	
          0.15457721	        -15.91905872	          0.21911857	          0.89871749	         13.02805665	         26.53106962	        -41.36514785	         -9.85506805	          0.46284029	          7.50865725	         11.22240208	
          0.16423828	        -15.93681993	          0.23111917	          0.90021856	         14.36185556	         25.60417084	        -42.24943741	         -9.59289105	          1.39834414	          7.61443493	         11.18098970	
          0.17389936	        -15.95264712	          0.24305459	          0.90146893	         15.72434682	         24.66427814	        -43.02079285	         -9.30765622	          2.40875377	          7.77004676	         11.13457422	
          0.18356043	        -15.96664209	          0.25493323	          0.90247375	         17.10829214	         23.71593489	        -43.67476669	         -9.00846124	          3.47665219	          7.97061568	         11.08364373	
          0.19322151	        -15.97906704	          0.26676157	          0.90324628	         18.50749967	         22.76327085	        -44.20303954	         -8.70224903	          4.58461687	          8.21063659	         11.02861968	
          0.20288258	        -15.99023216	          0.27854717	          0.90380422	         19.91451661	         21.80973053	        -44.59787863	         -8.39570872	          5.71507238	          8.48285971	         10.97011936	
          0.21254366	        -16.00039133	          0.29029685	          0.90416753	         21.32276441	         20.85952259	        -44.85085243	         -8.09432053	          6.85046455	          8.77932902	         10.90866934	
          0.22220473	        -16.00936689	          0.30202537	          0.90435474	         22.71782441	         19.91832294	        -44.95868912	         -7.81503166	          7.97289684	          9.09016648	         10.84553546	
          0.23186581	        -16.01668727	          0.31373482	          0.90438670	         24.10395274	         18.99066209	        -44.90742716	         -7.56713610	          9.06571336	          9.40705844	         10.78023629	
